<svg width="16" height="16" viewBox="0 0 16 16" fill="none" xmlns="http://www.w3.org/2000/svg">
<g opacity="0.7">
<mask id="path-1-inside-1_121:2369" fill="white">
<path fill-rule="evenodd" clip-rule="evenodd" d="M8 16C12.4183 16 16 12.4183 16 8C16 3.58172 12.4183 0 8 0C3.58172 0 0 3.58172 0 8C0 12.4183 3.58172 16 8 16ZM4 5.75C4 5.3375 4.36 5 4.8 5H11.2C11.64 5 12 5.3375 12 5.75V10.25C12 10.6625 11.64 11 11.2 11H4.8C4.36 11 4 10.6625 4 10.25V5.75ZM8.424 8.1275L11.04 6.59375C11.14 6.53375 11.2 6.4325 11.2 6.32375C11.2 6.0725 10.908 5.9225 10.68 6.05375L8 7.625L5.32 6.05375C5.092 5.9225 4.8 6.0725 4.8 6.32375C4.8 6.4325 4.86 6.53375 4.96 6.59375L7.576 8.1275C7.836 8.28125 8.164 8.28125 8.424 8.1275Z"/>
</mask>
<path fill-rule="evenodd" clip-rule="evenodd" d="M8 16C12.4183 16 16 12.4183 16 8C16 3.58172 12.4183 0 8 0C3.58172 0 0 3.58172 0 8C0 12.4183 3.58172 16 8 16ZM4 5.75C4 5.3375 4.36 5 4.8 5H11.2C11.64 5 12 5.3375 12 5.75V10.25C12 10.6625 11.64 11 11.2 11H4.8C4.36 11 4 10.6625 4 10.25V5.75ZM8.424 8.1275L11.04 6.59375C11.14 6.53375 11.2 6.4325 11.2 6.32375C11.2 6.0725 10.908 5.9225 10.68 6.05375L8 7.625L5.32 6.05375C5.092 5.9225 4.8 6.0725 4.8 6.32375C4.8 6.4325 4.86 6.53375 4.96 6.59375L7.576 8.1275C7.836 8.28125 8.164 8.28125 8.424 8.1275Z" fill="#9873FF"/>
<path d="M11.04 6.59375L11.5458 7.45646L11.5545 7.45124L11.04 6.59375ZM8.424 8.1275L7.91822 7.26483L7.91499 7.26674L8.424 8.1275ZM10.68 6.05375L10.1811 5.18706L10.1742 5.19108L10.68 6.05375ZM8 7.625L7.49423 8.48767L8 8.78419L8.50577 8.48767L8 7.625ZM5.32 6.05375L5.82579 5.19106L5.8189 5.18709L5.32 6.05375ZM4.96 6.59375L4.44548 7.45129L4.45422 7.45641L4.96 6.59375ZM7.576 8.1275L8.08501 7.26673L8.08178 7.26484L7.576 8.1275ZM15 8C15 11.866 11.866 15 8 15V17C12.9706 17 17 12.9706 17 8H15ZM8 1C11.866 1 15 4.13401 15 8H17C17 3.02944 12.9706 -1 8 -1V1ZM1 8C1 4.13401 4.13401 1 8 1V-1C3.02944 -1 -1 3.02944 -1 8H1ZM8 15C4.13401 15 1 11.866 1 8H-1C-1 12.9706 3.02944 17 8 17V15ZM4.8 4C3.86949 4 3 4.7254 3 5.75H5C5 5.84389 4.9576 5.91361 4.91894 5.94985C4.88117 5.98526 4.83756 6 4.8 6V4ZM11.2 4H4.8V6H11.2V4ZM13 5.75C13 4.7254 12.1305 4 11.2 4V6C11.1624 6 11.1188 5.98526 11.0811 5.94985C11.0424 5.91361 11 5.84389 11 5.75H13ZM13 10.25V5.75H11V10.25H13ZM11.2 12C12.1305 12 13 11.2746 13 10.25H11C11 10.1561 11.0424 10.0864 11.0811 10.0502C11.1188 10.0147 11.1624 10 11.2 10V12ZM4.8 12H11.2V10H4.8V12ZM3 10.25C3 11.2746 3.86949 12 4.8 12V10C4.83756 10 4.88117 10.0147 4.91894 10.0501C4.9576 10.0864 5 10.1561 5 10.25H3ZM3 5.75V10.25H5V5.75H3ZM10.5342 5.73109L7.91822 7.26484L8.92978 8.99016L11.5458 7.45641L10.5342 5.73109ZM10.2 6.32375C10.2 6.05148 10.3507 5.84113 10.5255 5.73626L11.5545 7.45124C11.9293 7.22637 12.2 6.81352 12.2 6.32375H10.2ZM11.1789 6.92041C10.979 7.0355 10.7469 7.02706 10.5661 6.93353C10.3812 6.83789 10.2 6.62071 10.2 6.32375H12.2C12.2 5.1801 10.9661 4.7352 10.1811 5.18709L11.1789 6.92041ZM8.50577 8.48767L11.1858 6.91642L10.1742 5.19108L7.49423 6.76233L8.50577 8.48767ZM4.81423 6.91642L7.49423 8.48767L8.50577 6.76233L5.82577 5.19108L4.81423 6.91642ZM5.8 6.32375C5.8 6.62071 5.61883 6.83789 5.43392 6.93353C5.2531 7.02706 5.02103 7.0355 4.8211 6.92041L5.8189 5.18709C5.03391 4.7352 3.8 5.1801 3.8 6.32375H5.8ZM5.4745 5.73626C5.64928 5.84113 5.8 6.05148 5.8 6.32375H3.8C3.8 6.81352 4.07072 7.22637 4.4455 7.45124L5.4745 5.73626ZM8.08178 7.26484L5.46578 5.73109L4.45422 7.45641L7.07022 8.99016L8.08178 7.26484ZM7.91499 7.26674C7.96894 7.23484 8.03106 7.23484 8.08501 7.26674L7.06699 8.98826C7.64094 9.32766 8.35906 9.32766 8.93301 8.98826L7.91499 7.26674Z" fill="#9873FF" mask="url(#path-1-inside-1_121:2369)"/>
</g>
</svg>
